# xmcd CD database file
#
# Track frame offsets:
#	150
#	25496
#	47482
#	74211
#	93249
#	111902
#	132885
#	154741
#	178503
#	207781
#	233675
#	256572
#	279652
#
# Disc length: 4070 seconds
#
# Revision: 0
# Processed by: cddbd v1.5.1PL2 Copyright (c) Steve Scherf et al.
# Submitted via: CDex 1.51
#
DISCID=b00fe40d
DTITLE=Cassandra Wilson - New Moon Daughter
DYEAR=1995
DGENRE=Blues
TTITLE0=Strange Fruit
TTITLE1=Love Is Blindness
TTITLE2=Solomon Sang
TTITLE3=Death Letter
TTITLE4=Skylark
TTITLE5=Find Him
TTITLE6=I'm So Lonesome I Could Cry
TTITLE7=Last Train To Clarksville
TTITLE8=Until
TTITLE9=A Little Warm Death
TTITLE10=Memphis
TTITLE11=Harvest Moon
TTITLE12=32-20
EXTD=YEAR: 1995
EXTT0=
EXTT1=
EXTT2=
EXTT3=
EXTT4=
EXTT5=
EXTT6=
EXTT7=
EXTT8=
EXTT9=
EXTT10=
EXTT11=
EXTT12=
PLAYORDER=
